<?xml version="1.0" standalone="no"?>
<!DOCTYPE svg PUBLIC "-//W3C//DTD SVG 20010904//EN"
 "http://www.w3.org/TR/2001/REC-SVG-20010904/DTD/svg10.dtd">
<svg version="1.0" xmlns="http://www.w3.org/2000/svg"
 width="300.000000pt" height="412.000000pt" viewBox="0 0 300.000000 412.000000"
 preserveAspectRatio="xMidYMid meet">
<metadata>
Created by potrace 1.10, written by Peter Selinger 2001-2011
</metadata>
<g transform="translate(0.000000,412.000000) scale(0.100000,-0.100000)"
fill="#000000" stroke="none">
<path d="M1794 3491 c-18 -11 -40 -31 -50 -46 -25 -36 -74 -90 -74 -81 0 4 7
21 16 37 8 17 13 37 11 44 -6 14 39 39 54 30 5 -4 9 -1 9 4 0 19 -35 12 -82
-18 -25 -16 -49 -34 -52 -40 -4 -6 -14 -11 -22 -11 -11 0 -13 9 -8 40 9 55 -7
51 -57 -15 -22 -30 -60 -66 -84 -80 -24 -14 -46 -34 -50 -44 -3 -11 -12 -22
-20 -25 -8 -3 -23 -23 -34 -45 -11 -21 -32 -48 -47 -60 -33 -26 -22 -49 13
-26 24 16 25 16 19 -3 -5 -13 -1 -24 8 -29 12 -7 13 -16 6 -48 -12 -52 -13
-232 -1 -240 5 -3 30 -72 55 -153 25 -81 51 -165 58 -187 8 -25 25 -47 45 -61
l32 -22 -27 -5 c-15 -3 -34 -8 -42 -11 -24 -10 -72 42 -106 115 -55 112 -238
289 -301 289 -13 0 -31 9 -41 21 -9 11 -43 34 -76 51 -77 39 -106 71 -106 117
0 73 -50 120 -70 66 l-10 -26 -31 23 -30 23 -17 -22 c-9 -12 -28 -23 -42 -25
-19 -2 -24 -8 -22 -25 2 -16 -3 -22 -19 -25 -33 -4 -34 -24 -4 -54 21 -21 24
-28 13 -41 -21 -26 16 -43 95 -43 62 0 76 -4 128 -36 33 -19 59 -40 59 -45 0
-5 17 -19 37 -33 28 -17 42 -36 55 -72 11 -31 44 -81 90 -134 90 -105 116
-146 133 -210 10 -36 10 -61 3 -92 -6 -25 -8 -117 -5 -216 4 -167 4 -174 -19
-220 -13 -26 -48 -78 -78 -115 -31 -38 -88 -117 -127 -175 -40 -59 -95 -134
-124 -167 -111 -129 -135 -169 -181 -302 -24 -70 -44 -142 -44 -159 0 -25 -14
-46 -68 -103 l-67 -72 -128 -4 c-123 -3 -129 -4 -177 -35 -56 -36 -68 -61 -47
-94 21 -31 301 -130 372 -130 l50 -1 38 80 c22 44 45 84 53 88 8 4 14 14 14
21 0 6 23 38 51 69 28 31 48 61 45 66 -3 5 8 15 26 22 144 60 506 372 651 562
29 37 57 67 63 67 16 0 56 -83 103 -211 42 -115 73 -169 192 -329 95 -129 128
-161 203 -197 55 -26 61 -32 77 -80 10 -29 21 -77 24 -108 4 -30 12 -58 17
-61 14 -9 40 17 29 30 -4 6 -11 34 -14 63 -3 29 -13 66 -22 82 l-15 31 29 -6
c25 -5 35 -1 58 25 l29 31 17 -68 c24 -93 75 -148 143 -156 131 -17 264 -59
264 -85 0 -5 -62 -11 -137 -15 -76 -3 -175 -9 -220 -12 -91 -7 -138 5 -146 37
-8 30 -27 22 -27 -11 0 -23 7 -33 31 -46 28 -14 61 -15 271 -9 249 8 268 12
268 53 -1 53 -79 89 -258 118 -67 11 -87 18 -107 40 -40 43 -67 144 -66 246 2
95 -21 204 -63 298 -24 56 -132 327 -191 480 -18 47 -42 101 -54 120 -11 19
-21 42 -21 51 0 9 -7 20 -16 23 -12 4 -14 13 -10 32 4 14 2 32 -4 39 -14 17 3
133 29 187 11 24 27 70 36 103 19 69 58 111 237 258 102 84 157 145 172 195 4
12 13 22 20 22 6 0 36 25 66 55 30 31 78 69 105 85 28 16 62 39 77 53 23 20
39 24 87 25 33 0 69 6 81 12 26 14 26 50 0 57 -15 4 -17 9 -10 22 14 27 -4 45
-37 38 -28 -5 -30 -4 -25 19 4 23 -12 54 -28 54 -5 0 -22 -11 -38 -25 l-30
-25 -16 25 c-20 30 -52 33 -61 5 -4 -11 -5 -40 -4 -64 3 -41 0 -47 -52 -96
-91 -87 -172 -140 -212 -140 -19 0 -54 -7 -77 -15 -50 -18 -195 -133 -300
-239 -63 -64 -80 -76 -108 -76 -22 0 -41 8 -57 25 -33 32 -32 39 11 54 20 7
54 29 75 48 74 67 193 278 264 468 20 55 43 104 51 108 33 19 63 129 42 154
-6 7 -23 13 -39 13 -22 0 -29 5 -29 19 0 11 -10 27 -22 35 l-22 16 21 0 c12 0
24 4 27 9 4 5 -3 7 -15 4 -18 -5 -20 -3 -14 15 3 12 3 27 -2 34 -5 9 -10 1
-13 -22 -4 -30 -9 -35 -33 -36 -15 -1 -32 5 -38 12 -14 17 -1 18 37 4 25 -10
24 -7 -12 28 -22 21 -48 55 -58 76 -14 29 -20 35 -27 25 -8 -12 -10 -12 -18 0
-6 10 -17 11 -37 6 l-29 -8 27 -11 c27 -12 27 -12 8 -28 -22 -19 -60 -20 -60
-1 0 18 18 25 22 8 2 -10 7 -12 18 -5 13 9 13 11 0 20 -10 6 -15 25 -15 52 0
35 -4 43 -20 46 -11 1 -34 -6 -51 -17z m42 -25 c3 -8 1 -22 -4 -32 -8 -14 -11
-12 -25 15 -15 29 -14 31 4 31 11 0 22 -6 25 -14z m-252 -23 c-7 -30 -29 -53
-51 -53 -9 0 -2 15 18 40 18 22 34 40 36 40 2 0 1 -12 -3 -27z m189 -67 c-6
-39 -27 -56 -45 -38 -8 8 -3 21 16 47 16 20 30 35 32 33 2 -2 1 -21 -3 -42z
m183 19 c1 -18 -3 -25 -16 -25 -29 0 -33 17 -8 34 12 9 23 16 23 16 0 0 1 -11
1 -25z m-349 -34 c0 -11 -4 -18 -8 -15 -4 2 -11 -1 -15 -7 -5 -8 -9 -7 -15 2
-4 8 -1 18 9 26 24 17 31 16 29 -6z m-48 -38 c17 -15 31 -31 31 -35 0 -7 -110
-7 -110 0 0 12 36 61 46 62 1 0 16 -12 33 -27z m-113 -17 c-1 -19 -3 -32 -5
-30 -2 2 -10 -1 -16 -6 -23 -19 -25 17 -4 44 11 14 22 26 23 26 1 0 2 -15 2
-34z m234 2 c0 -9 3 -8 10 2 5 8 12 11 17 7 9 -9 -12 -24 -45 -33 -27 -8 -37
-1 -29 21 8 18 47 20 47 3z m166 -3 c-3 -9 0 -12 10 -8 7 3 14 9 14 14 0 17
39 9 50 -10 14 -27 13 -30 -12 -24 -18 4 -20 2 -9 -5 12 -9 10 -12 -12 -18
-16 -3 -31 -4 -34 0 -4 3 4 6 16 6 12 0 20 4 16 9 -3 6 3 14 12 20 29 16 10
22 -20 6 -29 -15 -52 -12 -60 9 -3 7 4 13 15 13 13 1 18 -3 14 -12z m-78 -40
c29 -14 60 -25 71 -25 10 0 24 -7 31 -15 7 -8 25 -15 41 -15 31 0 72 -36 65
-57 -7 -16 30 -36 55 -30 10 3 17 2 14 -3 -2 -4 9 -19 26 -34 33 -30 34 -22
-13 -152 -27 -75 -31 -81 -53 -76 -27 5 -35 -15 -11 -24 16 -6 12 -28 -9 -54
-7 -8 -12 -22 -12 -30 0 -23 -113 -199 -158 -246 -86 -90 -291 -92 -317 -4
-32 109 -102 341 -111 367 -9 27 -8 35 6 51 22 24 21 32 -1 32 -16 0 -17 7
-11 73 7 77 20 120 41 133 7 4 31 8 54 9 27 0 55 10 82 28 23 15 48 27 56 27
8 0 18 5 21 10 3 6 17 10 29 10 13 0 34 9 47 20 l24 20 -33 -16 c-18 -9 -38
-14 -45 -11 -6 2 4 11 23 20 19 8 35 16 36 16 0 1 24 -10 52 -24z m68 -12 c-2
-2 -16 1 -32 7 -22 9 -25 13 -14 20 10 6 21 4 32 -7 10 -9 16 -18 14 -20z
m133 9 c-8 -3 -23 -12 -34 -22 -14 -11 -28 -15 -45 -10 -24 6 -24 7 12 19 20
6 39 19 42 28 5 13 9 13 22 2 13 -11 13 -14 3 -17z m-443 -48 c-41 -22 -66
-26 -66 -11 0 9 15 18 38 22 30 6 33 9 17 15 -19 7 -19 7 0 18 17 9 21 7 26
-11 4 -16 0 -25 -15 -33z m574 27 c13 -26 13 -28 -7 -28 -19 0 -33 14 -33 35
0 19 28 14 40 -7z m-680 -5 c0 -15 -40 -49 -48 -42 -6 6 29 56 39 56 5 0 9 -6
9 -14z m615 -26 c9 -16 12 -30 8 -30 -5 0 -1 -5 7 -10 11 -7 11 -10 2 -10 -7
0 -11 -4 -8 -8 2 -4 -9 -9 -25 -10 -16 -1 -29 2 -29 8 0 5 9 10 19 10 10 0 21
6 24 14 4 10 -3 13 -25 12 -35 -1 -48 27 -20 44 26 14 30 12 47 -20z m114 -57
c0 -16 -3 -22 -6 -15 -8 20 -23 14 -24 -10 -1 -20 -2 -20 -14 7 -14 32 -7 45
28 45 12 0 17 -8 16 -27z m31 -30 c0 -14 -41 -75 -46 -70 -8 7 26 77 37 77 5
0 9 -3 9 -7z m-1442 -125 l23 -23 19 25 20 25 0 -42 c0 -36 6 -48 46 -87 64
-65 54 -86 -21 -46 -42 22 -66 29 -98 26 -23 -2 -32 -1 -19 1 40 8 22 37 -27
45 -56 10 -78 28 -33 28 18 0 32 4 32 10 0 5 6 7 14 4 20 -8 29 12 16 36 -14
26 -2 25 28 -2z m1871 -88 c11 -34 37 -40 46 -11 3 11 13 25 21 32 14 11 15 8
8 -26 l-7 -38 33 6 c26 6 30 4 22 -6 -13 -16 -4 -33 23 -40 11 -4 -9 -5 -43
-3 -60 4 -66 2 -100 -28 -21 -18 -55 -43 -77 -56 -22 -13 -68 -50 -102 -83
-34 -34 -64 -59 -65 -56 -26 41 -25 43 17 70 41 26 203 163 217 183 4 6 3 15
-1 21 -12 14 -20 65 -11 65 5 0 13 -13 19 -30z m-1626 -108 c15 -17 17 -24 7
-42 l-12 -22 -27 29 c-15 17 -32 32 -39 34 -7 2 -9 13 -6 26 6 21 8 21 33 9
14 -8 34 -23 44 -34z m102 -46 c58 -24 216 -191 258 -273 38 -73 85 -123 115
-123 9 0 35 5 57 11 62 16 146 28 160 23 7 -3 18 -18 24 -32 14 -33 44 -53 94
-62 37 -7 39 -5 140 89 224 210 320 271 374 236 25 -17 30 -53 11 -88 -19 -35
-97 -115 -178 -180 -159 -128 -207 -186 -229 -274 -5 -21 -21 -65 -35 -98 -18
-43 -26 -78 -26 -124 l0 -64 -102 7 c-57 3 -168 11 -248 16 -80 5 -171 7 -203
3 l-58 -6 2 259 c1 214 -1 265 -14 294 -18 40 -74 117 -127 175 -85 92 -108
154 -74 203 18 26 16 26 59 8z m661 -992 l101 -6 38 -71 c21 -40 55 -115 75
-167 70 -177 160 -405 181 -455 44 -105 69 -208 69 -282 0 -67 -2 -76 -27 -99
-32 -30 -71 -41 -92 -26 -9 7 -42 25 -73 42 -74 39 -104 70 -212 219 -97 134
-135 205 -187 350 -24 66 -45 107 -70 133 -33 35 -39 38 -62 27 -14 -6 -48
-39 -75 -73 -160 -199 -428 -431 -632 -548 -42 -24 -48 -25 -79 -12 l-34 14 6
66 c4 37 10 71 15 78 5 6 21 47 36 92 27 83 66 143 165 259 29 33 77 98 108
145 31 47 84 121 118 165 34 44 75 100 90 124 l29 43 206 -6 c113 -4 250 -9
306 -12z m-1031 -1014 c30 0 35 6 -95 -135 -10 -11 -29 -45 -42 -75 -42 -100
-35 -95 -114 -71 -143 43 -289 99 -292 112 -1 8 17 25 40 38 38 21 59 25 171
29 l128 5 51 53 c28 30 60 54 71 54 14 0 17 5 13 17 -6 14 -2 12 17 -5 13 -12
36 -22 52 -22z"/>
<path d="M1555 3158 c-76 -27 -91 -34 -122 -61 -58 -51 -30 -91 29 -42 41 34
111 65 148 65 34 0 55 21 38 38 -14 14 -51 14 -93 0z"/>
<path d="M1835 3125 c-68 -20 -54 -33 78 -66 59 -15 91 -28 98 -41 10 -19 34
-24 44 -8 14 22 -27 72 -78 94 -72 32 -96 35 -142 21z"/>
<path d="M1535 3059 c-98 -50 -107 -57 -103 -87 3 -24 8 -27 43 -30 56 -5 104
12 151 52 31 26 41 43 42 65 1 29 -2 31 -36 31 -21 0 -63 -14 -97 -31z m80
-29 c-22 -23 -32 -27 -42 -19 -19 17 -16 24 15 36 49 19 57 14 27 -17z m-95
-40 c0 -15 -7 -20 -25 -20 -14 0 -25 4 -25 8 0 7 30 27 48 31 1 1 2 -8 2 -19z"/>
<path d="M1699 3048 c-7 -18 -30 -63 -51 -100 -21 -37 -38 -74 -38 -82 0 -16
44 -29 71 -21 26 8 24 23 -4 30 -22 6 -22 7 21 95 40 81 46 110 23 110 -5 0
-15 -15 -22 -32z"/>
<path d="M1758 3009 c-25 -14 -22 -52 5 -77 31 -29 78 -42 150 -42 51 0 59 3
66 23 11 26 -22 67 -74 92 -37 17 -121 20 -147 4z m78 -45 c-26 -27 -26 -27
-47 -8 l-21 19 33 6 c60 11 62 10 35 -17z m104 -32 c0 -10 -7 -12 -22 -8 -13
3 -26 6 -29 6 -4 0 -6 11 -6 25 0 24 0 25 28 8 16 -10 29 -24 29 -31z"/>
<path d="M1495 2775 c-30 -29 -30 -32 -4 -122 27 -91 59 -124 126 -130 67 -6
125 26 184 103 26 35 51 58 59 56 10 -4 11 5 6 38 -4 24 -9 47 -12 52 -10 16
-34 8 -34 -12 0 -25 -32 -44 -48 -28 -9 9 -12 9 -12 0 0 -19 -151 -16 -200 4
-38 15 -40 18 -25 34 14 16 11 30 -7 30 -5 0 -20 -11 -33 -25z m246 -106 c-21
-20 -51 -20 -51 1 0 17 -25 11 -38 -10 -17 -27 -32 -25 -32 5 0 24 2 25 72 25
l72 0 -23 -21z m-139 -47 c15 -15 54 -16 63 -2 4 6 13 7 24 1 10 -6 29 -7 42
-4 24 6 24 6 5 -16 -13 -15 -23 -18 -30 -11 -14 14 -136 13 -136 -1 0 -17 -27
8 -33 30 -4 15 1 18 24 17 16 -1 34 -7 41 -14z"/>
<path d="M1507 2238 c-37 -48 -47 -81 -47 -152 0 -50 -4 -67 -20 -81 -11 -10
-20 -22 -20 -27 0 -12 24 -10 38 4 7 7 34 13 60 13 35 0 47 4 47 15 0 10 -10
15 -30 15 -39 0 -38 16 10 123 20 45 35 90 33 100 -6 31 -44 26 -71 -10z m11
-90 c-14 -32 -24 -46 -26 -36 -4 21 39 118 45 101 2 -6 -6 -35 -19 -65z"/>
<path d="M1645 2235 c-41 -40 -28 -127 22 -158 18 -11 16 -46 -3 -54 -9 -3
-20 0 -25 8 -11 19 -32 -2 -23 -24 16 -42 87 -22 100 28 6 25 0 38 -48 97 -18
23 -20 33 -12 55 12 34 44 44 44 14 0 -12 6 -21 15 -21 20 0 20 44 -1 64 -22
22 -41 20 -69 -9z"/>
<path d="M2065 3385 c22 -19 45 -35 50 -35 6 0 -5 12 -23 26 -18 14 -30 30
-27 35 4 5 -4 9 -17 9 -21 -1 -19 -4 17 -35z"/>
</g>
</svg>
