<?xml version="1.0" standalone="no"?>
<!DOCTYPE svg PUBLIC "-//W3C//DTD SVG 20010904//EN"
 "http://www.w3.org/TR/2001/REC-SVG-20010904/DTD/svg10.dtd">
<svg version="1.0" xmlns="http://www.w3.org/2000/svg"
 width="300.000000pt" height="432.000000pt" viewBox="0 0 300.000000 432.000000"
 preserveAspectRatio="xMidYMid meet">
<metadata>
Created by potrace 1.10, written by Peter Selinger 2001-2011
</metadata>
<g transform="translate(0.000000,432.000000) scale(0.100000,-0.100000)"
fill="#000000" stroke="none">
<path d="M1818 4211 c-26 -17 -57 -48 -70 -70 -26 -46 -45 -48 -40 -6 3 22 0
26 -12 21 -46 -18 -46 -15 -1 13 28 17 58 29 68 27 10 -2 17 2 17 10 0 8 -2
14 -5 14 -17 0 -84 -35 -125 -65 -53 -39 -74 -44 -66 -17 29 103 15 104 -64 8
-30 -37 -73 -77 -95 -89 -22 -13 -49 -37 -60 -54 -11 -18 -25 -32 -31 -33 -6
0 -20 -19 -32 -43 -12 -23 -35 -56 -52 -72 -27 -26 -40 -55 -24 -55 3 0 19 9
35 21 28 19 41 15 19 -7 -13 -13 -2 -44 16 -44 10 0 11 -6 4 -26 -6 -14 -13
-83 -17 -155 -5 -113 -4 -131 11 -148 17 -18 77 -200 117 -356 22 -85 36 -107
83 -136 l29 -18 -24 -5 c-13 -3 -44 -7 -69 -9 -69 -6 -270 -51 -270 -60 0 -5
-11 -18 -25 -29 -36 -28 -137 -163 -167 -223 -52 -103 -138 -502 -138 -641 0
-73 -2 -81 -57 -185 -47 -92 -60 -109 -80 -109 -34 0 -120 -46 -138 -74 -21
-32 -10 -56 27 -56 25 0 29 -3 23 -17 -4 -10 -10 -30 -13 -45 -5 -32 20 -48
48 -30 15 9 21 7 35 -14 9 -14 24 -24 33 -22 9 2 26 -8 38 -21 17 -20 24 -22
41 -12 28 15 47 73 39 123 -4 22 -3 45 2 52 5 6 28 65 51 131 49 138 56 153
116 255 49 81 103 234 112 315 6 57 22 96 23 56 0 -28 -33 -349 -55 -526 -8
-66 -17 -158 -21 -205 -3 -47 -12 -131 -21 -188 -20 -138 -6 -278 37 -366 l29
-60 -25 -60 c-14 -34 -35 -69 -47 -79 -41 -36 -158 -99 -229 -126 -82 -30 -91
-45 -59 -98 38 -62 59 -68 231 -70 85 -2 171 -4 190 -5 35 -3 35 -3 58 67 26
79 33 146 15 152 -9 3 -33 -57 -68 -173 -2 -8 -23 -7 -72 3 -53 11 -82 12
-129 4 -77 -14 -151 -1 -176 29 -25 31 -23 35 25 50 49 14 117 48 168 83 27
18 40 22 48 14 16 -16 33 6 61 78 28 71 37 84 68 96 45 17 50 2 31 -91 -17
-89 -12 -117 17 -88 18 17 33 81 34 140 0 21 3 37 8 37 33 -5 59 8 106 54 43
42 59 68 85 137 47 122 61 185 61 265 1 38 5 104 10 145 5 41 14 122 20 180
10 104 27 180 40 180 10 0 20 -91 20 -185 0 -44 -11 -172 -25 -285 -28 -232
-35 -435 -16 -492 7 -21 23 -46 36 -56 23 -18 23 -20 9 -68 -39 -127 -46 -138
-93 -146 -59 -10 -108 -45 -126 -91 -21 -52 -19 -81 8 -112 30 -35 76 -35 153
0 150 68 261 126 289 148 l29 24 1 146 c0 121 3 148 17 164 28 31 80 155 87
208 11 89 5 474 -11 710 -9 127 -17 244 -17 262 -1 36 14 52 23 25 4 -9 24
-46 46 -82 21 -36 49 -98 62 -139 19 -62 33 -86 86 -143 34 -37 62 -75 62 -84
0 -9 13 -40 29 -68 16 -28 45 -94 65 -146 32 -86 35 -100 29 -165 -5 -59 -3
-73 12 -85 15 -13 19 -12 32 5 11 14 17 16 20 7 15 -39 83 -32 83 8 0 11 14
32 30 47 31 27 39 56 19 69 -8 4 -2 12 15 21 14 7 26 22 26 33 0 25 -46 60
-81 60 -24 0 -33 9 -69 75 -44 79 -90 203 -90 242 0 13 -6 23 -14 23 -9 0 -15
18 -19 53 -3 29 -21 122 -40 207 -20 85 -44 201 -56 258 -22 119 -64 215 -148
340 -80 121 -202 282 -213 282 -6 0 8 16 30 36 46 42 127 162 197 294 51 95
139 306 149 360 4 16 14 30 24 33 27 7 51 62 57 128 5 52 4 57 -16 64 -11 3
-30 3 -41 0 -16 -5 -20 -2 -20 19 0 15 -10 33 -26 45 -24 19 -25 21 -7 21 11
0 26 7 33 15 8 9 9 15 2 15 -6 0 -14 -4 -17 -10 -15 -24 -31 -9 -28 28 1 28 0
31 -5 12 -11 -40 -28 -63 -41 -56 -18 11 -13 26 7 20 9 -4 3 6 -15 20 -17 15
-41 42 -53 62 -12 19 -25 33 -28 29 -3 -3 4 -19 17 -35 l22 -30 -24 0 c-21 0
-24 5 -24 43 -1 75 -3 87 -14 87 -6 0 -8 -9 -4 -21 l7 -22 -31 22 c-29 21 -32
21 -62 5 -31 -15 -32 -15 -24 2 18 44 18 67 0 81 -26 18 -35 17 -87 -16z m51
-15 c7 -8 9 -25 5 -40 -7 -30 -24 -35 -24 -7 0 10 -7 24 -15 31 -13 11 -13 15
-3 21 18 12 24 11 37 -5z m-295 -47 c-5 -28 -13 -38 -37 -47 -17 -6 -33 -10
-35 -7 -2 2 13 24 34 49 21 25 39 44 41 43 1 -2 0 -19 -3 -38z m244 -21 c9 -9
7 -17 -10 -35 -17 -18 -19 -26 -10 -35 17 -17 15 -23 -12 -36 -21 -9 -29 -8
-48 8 l-23 19 23 21 c12 11 29 32 38 45 18 28 25 30 42 13z m190 -20 c18 -18
14 -38 -7 -38 -24 0 -33 13 -25 34 7 19 16 20 32 4z m-105 -15 c-6 -15 -4 -16
9 -5 10 8 19 9 22 3 8 -12 -3 -41 -16 -41 -5 0 -6 5 -3 10 3 6 1 11 -4 11 -6
1 -15 2 -21 3 -5 0 -10 4 -10 9 0 4 0 12 0 17 0 6 7 10 15 10 10 0 12 -6 8
-17z m-303 -18 c0 -3 -8 -17 -17 -32 -15 -23 -17 -24 -23 -7 -5 12 -1 24 9 31
17 13 31 16 31 8z m-17 -75 c26 0 20 -42 -8 -63 -25 -18 -35 -11 -14 10 15 15
-66 26 -92 12 -11 -6 -23 -8 -26 -6 -12 12 11 68 34 87 l26 21 32 -31 c17 -16
39 -30 48 -30z m-184 -26 c-13 -26 -39 -32 -39 -10 0 7 10 26 22 42 20 25 23
26 26 10 2 -10 -2 -29 -9 -42z m491 32 c0 -16 -24 -38 -33 -30 -8 9 11 44 23
44 6 0 10 -6 10 -14z m-196 -11 c4 -11 -3 -19 -20 -25 -44 -17 -52 -12 -38 24
8 20 50 21 58 1z m254 -1 c-9 -9 -21 -13 -27 -10 -20 13 -11 26 16 26 25 0 26
-1 11 -16z m-120 -6 c-3 -7 -18 -15 -34 -19 l-29 -8 24 19 c26 22 45 26 39 8z
m-92 -27 c-17 -19 -64 -36 -73 -27 -5 5 66 45 81 46 5 0 1 -9 -8 -19z m249 9
c4 -6 10 -8 15 -5 11 7 40 -5 40 -16 0 -12 -37 -11 -45 1 -4 6 -11 8 -16 5 -5
-4 -9 -1 -9 5 0 6 -4 8 -10 5 -5 -3 -10 -1 -10 4 0 14 27 14 35 1z m-120 -20
c20 -22 9 -26 -29 -9 -14 7 -23 16 -20 20 9 15 30 10 49 -11z m-37 -19 c11 -6
29 -11 38 -11 10 0 25 -7 35 -16 10 -9 39 -20 65 -25 49 -9 78 -36 79 -74 0
-15 8 -21 31 -25 31 -5 97 -55 106 -81 4 -11 -66 -233 -78 -248 -2 -2 -10 2
-18 8 -8 7 -20 10 -26 6 -15 -9 -12 -35 5 -35 21 0 19 -12 -10 -54 -14 -21
-23 -42 -19 -47 9 -14 -128 -228 -183 -287 -37 -38 -61 -54 -102 -66 -76 -22
-172 -21 -220 3 -49 26 -58 37 -71 96 -6 28 -24 91 -39 140 -16 50 -43 134
-60 189 -32 98 -33 129 -6 140 23 8 18 26 -8 26 -22 0 -22 1 -16 83 11 132 38
182 95 171 31 -6 70 8 144 49 62 34 93 47 115 47 12 0 33 8 46 19 24 19 51 17
97 -8z m-304 -13 c5 -24 2 -28 -41 -44 -34 -13 -48 -15 -51 -6 -9 27 -6 28 48
31 17 0 30 5 30 10 0 5 -10 7 -22 4 l-23 -5 24 21 c27 24 26 25 35 -11z m476
14 c0 -15 -24 -32 -45 -32 -36 0 -38 14 -3 26 41 15 48 16 48 6z m178 -27 c-3
-25 0 -35 10 -35 7 0 10 -4 7 -10 -11 -18 -21 -11 -38 25 -22 46 -21 55 4 55
18 0 21 -5 17 -35z m-803 4 c-4 -22 -48 -63 -53 -49 -4 11 38 70 49 70 4 0 6
-9 4 -21z m742 -43 c-2 -6 3 -17 12 -24 12 -10 13 -15 3 -18 -6 -3 -9 -11 -5
-17 3 -7 3 -9 -2 -5 -4 4 -14 3 -21 -3 -15 -12 -44 -6 -44 10 0 5 17 12 37 16
27 5 33 9 22 16 -8 5 -26 7 -40 4 -16 -4 -30 0 -38 8 -9 12 -6 17 20 26 18 6
30 14 26 17 -3 3 -15 0 -27 -6 -12 -6 -24 -9 -27 -7 -3 3 8 12 23 20 26 14 30
13 46 -6 10 -11 17 -25 15 -31z m133 -58 c-1 -28 -2 -30 -11 -15 -13 22 -29
13 -30 -16 0 -18 -3 -16 -15 11 -18 40 -12 52 27 52 26 0 29 -3 29 -32z m-80
-28 c9 -17 8 -20 -10 -20 -13 0 -20 7 -20 20 0 11 4 20 10 20 5 0 14 -9 20
-20z m96 -49 c-9 -16 -20 -33 -26 -36 -18 -11 -11 29 12 65 16 26 23 31 26 18
2 -9 -4 -30 -12 -47z m-456 -790 c0 -6 11 -22 24 -36 14 -15 22 -33 19 -44 -5
-18 -7 -18 -56 2 -47 20 -49 22 -24 25 43 5 34 32 -10 33 l-38 1 35 13 c43 17
50 17 50 6z m-112 -55 c8 -38 72 -86 115 -86 48 0 139 -53 173 -101 101 -142
155 -256 175 -375 6 -38 31 -157 55 -266 24 -108 44 -205 44 -217 0 -29 -21
-71 -36 -71 -7 0 -32 22 -56 49 -33 36 -50 68 -68 126 -13 43 -46 112 -72 153
-26 42 -51 91 -54 109 -7 38 -30 44 -38 11 -3 -13 -3 6 0 42 3 36 10 89 16
119 10 45 14 51 24 37 9 -13 12 -1 16 66 6 95 -10 127 -27 55 -6 -23 -18 -55
-26 -72 -28 -51 -49 -140 -49 -203 l0 -60 -77 3 c-43 1 -86 6 -96 10 -9 4 -28
5 -40 1 -13 -3 -50 -1 -83 4 -71 12 -348 15 -386 5 -35 -9 -35 -9 -43 137 -5
75 -11 117 -18 115 -5 -1 -13 9 -17 23 -5 19 -8 9 -14 -39 -4 -36 -13 -76 -20
-90 -8 -14 -18 -55 -25 -91 -28 -167 -155 -440 -188 -406 -16 16 -8 184 15
300 26 136 82 353 105 409 21 50 135 205 164 224 26 18 218 65 248 61 23 -2
123 20 145 33 8 5 42 8 75 6 50 -2 60 -5 63 -21z m-43 -711 c173 -16 198 -16
226 -4 35 14 47 6 28 -17 -18 -22 -16 -164 5 -444 19 -239 20 -427 5 -535 -10
-77 -62 -210 -90 -231 -19 -15 -126 -52 -171 -60 -35 -6 -37 -4 -59 37 -20 41
-21 52 -16 219 3 96 15 247 27 335 37 271 20 442 -43 433 -38 -5 -65 -60 -72
-146 -3 -42 -10 -108 -16 -147 -5 -38 -13 -131 -18 -205 -8 -117 -13 -148 -44
-234 -44 -121 -76 -169 -131 -195 -33 -16 -53 -19 -95 -14 l-53 6 -29 61 c-42
93 -54 214 -36 357 9 63 18 150 22 194 3 44 12 130 20 190 7 61 19 173 25 250
7 77 13 145 15 152 3 9 58 11 227 8 123 -3 246 -7 273 -10z m-779 -348 c6 -16
-73 -234 -93 -258 -11 -13 -11 -24 -1 -62 9 -34 9 -51 1 -69 -11 -22 -12 -21
-12 14 -1 45 -19 59 -39 30 -22 -33 -31 -27 -25 17 3 21 1 41 -5 45 -11 6 -37
-15 -45 -36 -2 -7 -8 -10 -12 -6 -4 4 2 19 14 34 27 34 13 56 -30 47 -16 -3
-29 -2 -29 1 0 12 83 46 112 46 31 0 59 38 111 147 29 62 43 76 53 50z m1431
-109 c7 -36 34 -104 66 -167 54 -105 55 -106 93 -109 55 -5 63 -18 20 -36 -41
-17 -52 -56 -16 -56 26 0 26 -16 0 -23 -13 -3 -22 -17 -26 -36 -8 -38 -24 -31
-24 11 0 27 -3 30 -24 24 -23 -6 -24 -5 -13 30 8 27 8 40 -2 55 -6 11 -25 55
-41 97 -15 42 -44 108 -64 145 l-36 69 22 28 c13 16 25 29 28 29 3 1 11 -27
17 -61z m-494 -932 c0 -63 -4 -124 -8 -136 -5 -15 -51 -42 -163 -96 -170 -83
-210 -95 -231 -70 -10 12 -10 23 -1 50 14 44 50 73 99 82 20 3 43 8 52 10 21
6 54 81 69 162 l13 62 36 0 c20 0 59 11 86 24 28 14 50 25 50 25 0 1 -1 -50
-2 -113z"/>
<path d="M1571 3825 c-18 -8 -42 -15 -53 -15 -51 0 -158 -78 -158 -116 0 -34
31 -31 73 6 41 36 116 69 175 77 49 7 65 29 37 49 -23 17 -31 17 -74 -1z"/>
<path d="M1867 3778 c-26 -7 -37 -15 -35 -26 3 -17 11 -20 142 -53 62 -16 96
-30 111 -47 29 -31 60 -24 50 10 -13 45 -43 74 -106 100 -69 28 -102 32 -162
16z"/>
<path d="M1499 3692 c-71 -37 -96 -55 -103 -75 -30 -85 119 -81 236 6 28 21
55 88 43 107 -15 24 -84 9 -176 -38z m132 -10 c-5 -10 -21 -24 -35 -31 -21
-12 -27 -11 -41 3 -15 15 -15 17 7 25 13 4 30 11 38 14 31 11 41 8 31 -11z
m-135 -62 c0 -16 -7 -20 -33 -20 -40 0 -41 5 -5 24 36 20 38 20 38 -4z"/>
<path d="M1701 3664 c-13 -30 -41 -84 -62 -119 -22 -35 -36 -70 -33 -79 8 -20
55 -29 88 -16 32 12 26 30 -10 30 -13 0 -24 2 -24 4 0 2 20 46 44 97 51 108
57 132 36 136 -10 2 -23 -16 -39 -53z"/>
<path d="M1835 3651 c-64 -8 -75 -16 -75 -51 0 -35 45 -75 98 -89 73 -18 161
-20 177 -4 26 26 18 59 -22 91 -68 53 -100 62 -178 53z m39 -66 c-29 -30 -32
-30 -56 -8 -27 24 -22 32 25 35 57 4 60 2 31 -27z m100 -6 c36 -29 33 -39 -14
-39 -36 0 -40 2 -32 18 5 9 7 23 5 30 -7 18 11 15 41 -9z"/>
<path d="M1553 3283 c-3 -8 0 -18 6 -23 20 -12 223 -22 234 -11 17 17 -3 30
-56 35 -145 15 -178 15 -184 -1z"/>
<path d="M1415 2738 c-50 -50 -65 -95 -65 -191 0 -59 -3 -71 -25 -91 -13 -13
-22 -26 -18 -29 13 -14 43 -6 53 12 9 18 13 18 36 6 31 -16 78 -6 82 18 3 14
-5 17 -38 17 -51 0 -51 3 5 128 45 102 55 156 30 166 -12 4 -30 -6 -60 -36z
m30 -49 c-12 -37 -55 -129 -60 -129 -8 0 5 49 28 103 19 46 45 67 32 26z"/>
<path d="M1594 2750 c-33 -13 -54 -50 -54 -96 0 -33 8 -53 35 -88 36 -47 44
-81 23 -89 -7 -2 -21 2 -30 10 -32 28 -53 -11 -22 -41 35 -36 99 -7 110 50 5
25 -1 38 -30 73 -44 53 -54 86 -35 120 18 32 41 33 49 3 8 -34 25 -32 28 5 2
23 -3 35 -20 47 -25 18 -25 18 -54 6z"/>
<path d="M2110 4130 c0 -12 93 -90 99 -84 3 3 -9 16 -27 30 -18 14 -32 31 -32
39 0 7 -9 15 -20 18 -11 3 -20 1 -20 -3z"/>
</g>
</svg>
