<?xml version="1.0" standalone="no"?>
<!DOCTYPE svg PUBLIC "-//W3C//DTD SVG 20010904//EN"
 "http://www.w3.org/TR/2001/REC-SVG-20010904/DTD/svg10.dtd">
<svg version="1.0" xmlns="http://www.w3.org/2000/svg"
 width="300.000000pt" height="480.000000pt" viewBox="0 0 300.000000 480.000000"
 preserveAspectRatio="xMidYMid meet">
<metadata>
Created by potrace 1.10, written by Peter Selinger 2001-2011
</metadata>
<g transform="translate(0.000000,480.000000) scale(0.100000,-0.100000)"
fill="#000000" stroke="none">
<path d="M1699 4291 c-25 -16 -56 -46 -69 -67 -23 -39 -76 -94 -90 -94 -4 0
-11 7 -14 16 -9 24 -7 31 5 11 9 -15 12 -16 25 -2 9 8 17 21 18 28 2 6 6 20
11 30 10 23 -1 33 -19 17 -9 -6 -20 -10 -27 -8 -6 2 12 16 40 32 29 15 58 25
66 22 9 -3 15 1 15 9 0 8 -2 15 -5 15 -17 0 -83 -34 -124 -63 -78 -57 -75 -57
-66 8 9 73 -2 71 -68 -16 -31 -39 -72 -78 -108 -101 -33 -21 -59 -41 -59 -46
0 -4 -16 -25 -35 -46 -19 -21 -37 -47 -40 -59 -4 -12 -23 -36 -42 -53 -46 -40
-37 -64 13 -33 l34 21 -12 -27 c-10 -23 -10 -29 5 -40 15 -11 16 -19 7 -65
-16 -83 -13 -270 4 -289 15 -16 64 -167 117 -356 22 -79 33 -104 56 -122 15
-13 34 -23 41 -23 29 0 8 -16 -35 -27 -74 -17 -103 5 -151 108 -39 86 -107
173 -205 265 -85 79 -140 114 -179 114 -13 0 -35 12 -49 28 -14 15 -63 46
-107 70 -94 50 -122 85 -122 153 0 80 -57 122 -79 58 l-11 -31 -31 26 c-38 32
-44 32 -65 0 -13 -19 -23 -24 -39 -20 -29 7 -49 -16 -40 -45 5 -16 3 -20 -6
-17 -20 7 -49 -10 -49 -28 0 -9 14 -29 30 -44 18 -17 26 -31 20 -35 -17 -11
-11 -44 11 -55 11 -7 57 -11 102 -11 78 0 86 -2 149 -40 37 -22 72 -48 77 -57
5 -10 30 -31 54 -46 36 -23 46 -36 51 -65 7 -42 53 -114 123 -192 97 -106 140
-173 156 -247 12 -52 13 -79 6 -113 -6 -24 -9 -147 -8 -274 2 -227 -6 -341
-46 -675 -40 -326 -54 -589 -35 -684 6 -34 22 -80 35 -104 l24 -43 -27 -66
c-21 -52 -37 -73 -70 -98 -55 -40 -162 -94 -226 -115 -66 -22 -77 -40 -51 -87
39 -72 57 -78 233 -79 86 -1 171 -6 188 -11 17 -6 36 -8 42 -4 15 9 62 159 62
199 0 21 -5 32 -15 32 -9 0 -23 -30 -41 -90 -30 -100 -27 -98 -113 -79 -36 8
-70 8 -120 0 -91 -14 -162 0 -186 36 -9 13 -15 26 -13 27 2 1 26 11 53 20 28
10 84 38 126 62 48 27 84 41 96 38 18 -5 24 5 48 68 15 40 34 78 41 84 9 7 12
19 7 29 -5 15 -3 17 11 12 10 -4 23 -7 29 -7 34 -1 37 -15 22 -94 -8 -43 -18
-82 -21 -87 -8 -14 25 -23 40 -10 8 6 17 33 20 59 16 110 16 110 53 123 49 16
100 64 129 121 44 87 94 232 131 376 3 13 0 34 -7 47 -21 38 5 370 32 420 l16
30 7 -39 c4 -21 8 -57 8 -80 1 -65 -22 -359 -38 -491 -30 -239 -14 -449 36
-462 15 -4 18 -11 13 -27 -4 -11 -13 -41 -19 -66 -25 -91 -31 -99 -75 -106
-64 -10 -127 -56 -139 -101 -12 -43 -14 -74 -5 -98 7 -19 55 -45 82 -45 26 0
298 124 357 164 44 29 51 39 62 86 7 29 9 58 5 64 -9 14 -9 196 0 196 13 0 47
67 72 142 40 117 50 244 37 465 -34 594 -36 641 -21 668 13 24 13 28 -2 39
-14 10 -16 24 -11 72 6 69 31 164 43 164 4 0 18 37 30 83 12 45 28 93 35 107
18 34 128 138 250 237 124 99 197 178 221 237 11 26 26 46 34 46 9 0 45 30 80
66 36 36 94 83 130 104 36 21 78 52 95 69 24 26 34 31 58 25 43 -9 133 5 158
25 27 22 18 58 -17 67 -18 5 -22 10 -15 17 16 16 13 44 -4 51 -8 3 -28 3 -44
0 -26 -6 -28 -4 -23 25 5 33 -11 61 -34 61 -8 0 -28 -13 -46 -29 l-33 -29 -30
35 c-21 24 -35 33 -47 28 -21 -8 -32 -62 -25 -117 5 -40 4 -42 -61 -103 -142
-132 -207 -175 -269 -175 -23 0 -65 -9 -93 -19 -60 -23 -207 -140 -350 -278
-58 -56 -117 -104 -131 -108 -35 -9 -84 17 -104 55 l-15 29 42 11 c122 32 324
344 434 670 17 51 38 92 52 103 31 25 48 63 56 121 7 59 -4 76 -50 76 -27 0
-34 4 -34 20 0 19 -5 25 -45 56 -17 14 -18 15 -2 10 21 -7 57 9 57 25 0 5 -11
2 -25 -7 l-25 -16 -2 43 c-1 37 -2 39 -5 12 -3 -19 -10 -33 -18 -33 -7 0 -36
25 -64 56 -52 57 -64 63 -35 19 16 -24 15 -25 -6 -25 -20 0 -22 4 -18 38 3 22
0 50 -8 68 -10 20 -13 22 -10 7 3 -17 0 -20 -13 -15 -9 3 -21 12 -26 19 -8 11
-17 12 -38 4 -35 -14 -35 -23 1 -16 25 5 25 5 4 -4 -29 -14 -55 -3 -46 18 22
52 11 91 -25 91 -10 0 -38 -13 -62 -29z m87 -4 c2 -7 0 -24 -5 -38 l-10 -24 0
27 c-1 15 -6 30 -12 34 -8 4 -9 0 -4 -15 7 -24 -2 -61 -16 -61 -5 0 -9 9 -9
19 0 11 -7 26 -15 34 -13 14 -12 17 13 25 38 14 52 14 58 -1z m-340 -71 c-5
-21 -42 -46 -67 -46 -6 0 7 22 28 49 37 48 52 47 39 -3z m252 -8 c8 -8 6 -17
-8 -36 -25 -31 -15 -50 10 -20 11 13 19 18 20 13 0 -6 -14 -25 -30 -43 -33
-36 -65 -40 -84 -10 -8 14 -6 22 12 38 12 12 29 32 38 45 18 28 25 30 42 13z
m202 -27 c15 -28 13 -31 -20 -31 -17 0 -29 -5 -27 -11 1 -6 -6 -13 -15 -14
-10 -2 -18 1 -18 6 0 5 4 9 10 9 5 0 16 14 25 30 18 35 30 38 45 11z m-115
-13 c-7 -22 -6 -22 7 -5 13 17 15 17 27 3 11 -14 11 -16 -3 -16 -10 0 -14 -5
-11 -10 4 -6 -5 -5 -19 2 -25 11 -33 28 -19 41 14 15 24 6 18 -15z m-305 -16
c0 -5 -11 -19 -25 -32 -25 -23 -25 -23 -25 -2 0 11 8 26 18 31 21 13 32 14 32
3z m-68 -47 c11 -14 28 -25 39 -25 38 0 14 -78 -25 -80 -5 0 -3 7 4 15 10 13
9 15 -8 15 -12 0 -24 4 -27 10 -4 6 -19 4 -42 -5 -19 -8 -38 -15 -40 -15 -14
0 11 77 29 93 28 23 47 21 70 -8z m-148 -66 c-38 -42 -47 -6 -11 44 l22 32 3
-28 c2 -17 -4 -37 -14 -48z m302 16 c-3 -8 -15 -15 -26 -15 -11 0 -23 -7 -26
-15 -4 -8 -10 -15 -15 -15 -5 0 -5 7 0 18 5 9 12 25 15 34 5 17 48 29 54 15 2
-4 1 -14 -2 -22z m212 23 c-7 -20 -40 -35 -45 -21 -4 10 -10 9 -26 -2 -24 -17
-47 -20 -47 -6 0 10 35 25 62 26 9 0 20 3 24 8 12 11 36 8 32 -5z m52 -3 c0
-5 -9 -10 -20 -9 -10 0 -18 -4 -17 -10 1 -5 -7 -12 -18 -14 -18 -4 -18 -2 5
22 23 26 52 32 50 11z m-210 -39 c-13 -17 -78 -41 -87 -33 -6 7 66 46 86 47
11 0 11 -3 1 -14z m123 -7 c24 -27 18 -32 -22 -18 -25 9 -29 14 -20 25 15 19
21 18 42 -7z m180 -10 c-14 -14 -43 0 -36 17 4 10 10 11 25 3 13 -7 17 -14 11
-20z m-214 -15 c14 -8 34 -14 44 -14 11 0 30 -9 44 -20 14 -11 38 -20 54 -20
34 0 83 -43 84 -73 0 -16 7 -23 25 -25 32 -5 107 -61 114 -86 2 -10 -10 -60
-29 -110 -56 -153 -54 -149 -69 -137 -14 12 -46 5 -46 -10 0 -5 7 -12 15 -15
21 -8 19 -37 -6 -68 -11 -14 -18 -30 -14 -36 9 -14 -147 -259 -197 -307 -53
-52 -111 -74 -207 -78 -115 -6 -168 28 -190 120 -15 62 -84 286 -116 378 l-24
69 23 23 c25 25 20 50 -7 39 -14 -5 -15 3 -11 68 7 86 28 159 53 182 12 11 27
14 49 10 28 -6 80 13 152 54 47 27 84 42 103 42 12 0 36 9 52 19 31 20 58 18
104 -5z m-317 -38 c-5 -9 -65 -36 -81 -36 -5 0 -11 9 -14 20 -5 18 0 20 39 20
24 0 44 5 44 11 0 6 -9 8 -22 4 -22 -6 -22 -6 2 16 l25 21 6 -23 c3 -13 4 -28
1 -33z m672 38 c19 -18 19 -20 6 -45 -9 -15 -7 -19 5 -19 9 0 13 -4 10 -10
-11 -18 -21 -11 -38 25 -28 58 -18 85 17 49z m-844 -56 c-36 -29 -41 -21 -12
23 25 38 27 40 30 18 3 -15 -4 -30 -18 -41z m658 42 c-13 -21 -34 -25 -64 -13
-14 5 -11 9 17 19 52 19 62 18 47 -6z m116 -22 c9 -12 16 -25 16 -29 0 -12
-53 -30 -71 -24 -24 8 -24 22 0 30 11 3 25 13 33 22 11 14 9 14 -22 -1 l-35
-17 25 20 c32 26 35 26 54 -1z m172 -36 c12 -8 12 -47 0 -59 -4 -5 -6 3 -4 17
2 14 -3 30 -12 37 -16 13 -2 18 16 5z m-140 -24 c4 -6 2 -14 -4 -16 -7 -2 -10
-8 -6 -13 3 -5 2 -9 -3 -8 -4 1 -16 -1 -25 -5 -21 -9 -52 0 -44 13 3 5 22 12
43 16 27 5 33 9 22 16 -9 5 -10 9 -2 9 6 0 15 -5 19 -12z m120 -45 c-7 -17 -8
-17 -17 0 -13 22 -29 13 -30 -16 l0 -22 -9 22 c-19 46 -16 57 15 63 34 7 53
-15 41 -47z m-88 -13 c11 -18 10 -20 -8 -20 -13 0 -20 7 -20 20 0 11 3 20 8
20 4 0 13 -9 20 -20z m102 -44 c-12 -26 -26 -46 -32 -46 -6 0 -7 7 -4 16 3 9
6 19 6 23 0 13 42 63 47 57 3 -3 -5 -25 -17 -50z m-1747 -113 l29 -28 24 30
24 30 0 -49 c0 -66 40 -116 129 -160 36 -19 76 -45 89 -59 21 -23 22 -27 9
-58 l-13 -33 -18 29 c-11 18 -56 53 -115 88 -92 54 -101 57 -167 58 -51 1 -60
3 -34 8 49 8 46 34 -5 44 -22 5 -53 15 -70 22 l-30 14 38 0 c24 1 37 6 37 15
0 9 8 12 25 8 20 -3 25 0 25 16 0 12 -4 24 -10 27 -11 7 -14 25 -3 25 4 0 20
-12 36 -27z m2388 -91 c-6 -12 -11 -30 -11 -42 0 -19 4 -22 35 -18 33 4 46 -4
25 -17 -16 -10 1 -34 28 -38 15 -2 -8 -5 -51 -6 -77 -1 -80 -2 -124 -41 -25
-21 -68 -53 -96 -69 -29 -17 -85 -62 -126 -101 -41 -38 -76 -70 -78 -70 -2 0
-3 8 -3 18 0 10 -6 24 -12 31 -10 10 -10 15 -2 18 28 10 138 93 206 155 41 37
83 74 93 82 16 12 18 18 8 37 -14 29 -23 79 -13 79 3 0 14 -16 23 -35 19 -40
41 -45 58 -12 15 28 41 58 46 53 3 -2 0 -13 -6 -24z m-1931 -226 c19 -13 80
-69 136 -124 81 -80 109 -117 144 -184 46 -89 108 -158 143 -158 12 0 47 7 77
16 73 21 171 33 191 23 9 -5 22 -21 28 -37 14 -34 69 -67 125 -75 39 -6 41 -5
140 92 151 148 331 289 390 306 27 8 57 15 66 15 25 0 51 -34 52 -67 1 -30
-27 -93 -41 -93 -4 0 -13 -11 -19 -24 -10 -22 -40 -49 -264 -235 -122 -102
-145 -132 -184 -245 -18 -50 -41 -116 -53 -146 -11 -30 -23 -91 -26 -135 l-7
-80 -126 6 c-70 4 -172 12 -227 19 -61 8 -155 11 -241 7 l-142 -5 -7 203 c-5
138 -4 224 4 271 12 70 6 134 -19 198 -15 40 -84 136 -160 221 -76 86 -100
131 -100 189 0 79 41 94 120 42z m618 -1176 c40 -6 122 -10 181 -10 l108 0 7
-177 c3 -98 11 -241 17 -318 6 -77 9 -232 7 -345 -3 -194 -5 -209 -31 -285
-41 -116 -60 -137 -154 -167 -137 -45 -131 -45 -153 4 -26 58 -26 219 -1 461
38 354 41 464 16 523 -18 43 -40 52 -66 28 -35 -31 -41 -53 -55 -183 -16 -152
-18 -256 -4 -281 11 -21 -17 -133 -67 -265 -56 -150 -95 -204 -161 -226 -27
-9 -45 -8 -88 6 -50 16 -57 22 -81 69 -23 45 -27 67 -31 175 -5 122 0 182 38
531 11 96 24 227 30 290 6 63 13 131 16 150 l5 36 197 -3 c108 -2 230 -8 270
-13z m206 -1437 l-2 -128 -32 -27 c-39 -32 -313 -158 -345 -158 -32 0 -47 23
-39 57 13 55 46 77 147 98 33 7 61 62 81 159 l12 59 59 17 c45 12 110 39 120
50 1 0 0 -57 -1 -127z"/>
<path d="M1445 3896 c-16 -8 -46 -17 -66 -20 -43 -7 -124 -59 -146 -93 -15
-22 -15 -26 0 -41 15 -15 20 -13 59 17 57 43 134 78 191 86 57 9 68 22 37 47
-27 21 -36 22 -75 4z"/>
<path d="M1753 3848 c-41 -9 -56 -29 -33 -43 5 -3 60 -19 122 -35 91 -24 115
-34 134 -57 21 -26 24 -27 39 -12 15 15 15 19 2 45 -22 43 -47 61 -117 89 -68
27 -82 28 -147 13z"/>
<path d="M1440 3792 c-50 -20 -136 -68 -162 -90 -22 -18 -23 -55 -3 -72 28
-24 126 -8 190 31 66 39 83 61 87 109 3 33 1 35 -32 37 -19 2 -55 -5 -80 -15z
m70 -29 c0 -11 -12 -25 -37 -46 -20 -18 -22 -18 -42 -1 -21 18 -21 18 22 35
50 20 57 21 57 12z m-142 -78 c0 -22 -5 -25 -36 -25 -19 0 -32 3 -29 7 5 4 46
32 63 42 1 1 2 -10 2 -24z"/>
<path d="M1604 3778 c-5 -7 -25 -47 -45 -88 -21 -41 -47 -88 -58 -105 -12 -16
-21 -38 -21 -48 0 -22 45 -40 82 -32 34 8 38 35 5 35 -13 0 -26 2 -28 5 -3 2
16 48 43 101 26 52 48 104 48 114 0 24 -16 34 -26 18z"/>
<path d="M1700 3713 c-19 -3 -41 -9 -47 -15 -32 -26 0 -95 54 -117 39 -16 185
-30 204 -20 9 5 20 21 24 36 6 24 1 32 -27 56 -71 61 -109 72 -208 60z m59
-60 c-13 -16 -25 -30 -26 -32 -4 -7 -53 29 -53 39 0 5 17 11 38 13 20 2 43 4
51 5 10 1 6 -8 -10 -25z m104 -15 c37 -26 34 -38 -11 -38 -37 0 -38 1 -38 34
0 36 1 36 49 4z"/>
<path d="M1352 3432 c-28 -22 -54 -70 -41 -77 5 -4 13 -4 18 -1 5 3 33 -5 63
-19 47 -22 66 -25 163 -24 69 0 125 5 150 14 38 14 41 13 57 -8 23 -30 44 -11
32 30 -4 15 -9 36 -10 47 -1 10 -7 22 -15 27 -16 10 -42 -9 -35 -27 11 -28
-27 -39 -141 -43 -99 -3 -120 0 -169 19 -52 21 -54 24 -38 41 9 10 13 23 9 28
-9 15 -16 14 -43 -7z"/>
<path d="M1339 2740 c-48 -50 -73 -129 -67 -207 4 -46 1 -57 -19 -79 -12 -14
-23 -29 -23 -35 0 -17 40 -9 52 10 9 15 16 17 30 10 11 -6 36 -9 56 -7 29 2
37 7 37 23 0 16 -6 20 -29 18 -57 -4 -57 9 -5 130 51 117 57 145 37 165 -19
19 -28 15 -69 -28z m11 -105 c-18 -42 -34 -74 -37 -71 -8 7 25 109 43 134 29
41 26 16 -6 -63z"/>
<path d="M1524 2750 c-70 -28 -72 -143 -5 -204 38 -35 16 -99 -24 -66 -8 6
-19 9 -25 5 -34 -21 20 -70 64 -59 63 16 73 82 21 144 -43 52 -53 85 -34 119
20 36 49 40 49 7 0 -32 16 -42 29 -17 15 28 14 38 -9 61 -22 22 -33 23 -66 10z"/>
<path d="M2031 4174 c52 -55 78 -63 33 -11 -21 26 -46 46 -53 47 -9 0 -1 -14
20 -36z"/>
</g>
</svg>
