<?xml version="1.0" standalone="no"?>
<!DOCTYPE svg PUBLIC "-//W3C//DTD SVG 20010904//EN"
 "http://www.w3.org/TR/2001/REC-SVG-20010904/DTD/svg10.dtd">
<svg version="1.0" xmlns="http://www.w3.org/2000/svg"
 width="300.000000pt" height="477.000000pt" viewBox="0 0 300.000000 477.000000"
 preserveAspectRatio="xMidYMid meet">
<metadata>
Created by potrace 1.10, written by Peter Selinger 2001-2011
</metadata>
<g transform="translate(0.000000,477.000000) scale(0.100000,-0.100000)"
fill="#000000" stroke="none">
<path d="M1757 3900 c-21 -17 -26 -17 -31 -5 -7 19 -43 6 -106 -39 -77 -55
-73 -55 -65 5 l7 54 -32 -30 c-17 -16 -40 -44 -51 -62 -11 -17 -39 -43 -62
-56 -49 -29 -100 -85 -128 -139 -11 -21 -30 -45 -44 -54 -14 -9 -25 -23 -25
-30 0 -18 11 -18 36 1 27 20 36 18 22 -5 -10 -16 -10 -22 4 -32 15 -11 16 -20
8 -53 -5 -22 -10 -83 -10 -135 0 -75 4 -103 20 -135 11 -22 38 -103 60 -180
59 -199 62 -207 97 -231 38 -25 33 -34 -18 -34 -21 0 -76 -9 -121 -19 -46 -11
-112 -23 -148 -27 -36 -4 -100 -20 -143 -35 -43 -16 -85 -29 -93 -29 -9 0 -62
-18 -120 -41 -86 -34 -116 -51 -173 -102 -37 -34 -85 -75 -105 -90 -21 -16
-42 -40 -48 -53 -6 -13 -17 -24 -25 -24 -7 0 -35 -10 -61 -23 -38 -19 -55 -22
-92 -16 -88 15 -166 10 -191 -10 -20 -16 -21 -21 -10 -35 7 -9 20 -16 29 -16
12 0 10 -6 -8 -24 -22 -24 -22 -56 0 -56 5 0 10 -7 10 -15 0 -8 7 -15 15 -15
9 0 15 -9 15 -25 0 -42 46 -51 94 -19 11 8 30 11 42 8 19 -5 25 0 37 28 13 30
21 36 71 47 31 7 69 22 84 35 49 40 76 52 147 65 39 8 126 33 195 56 142 47
209 65 245 65 20 0 25 -5 25 -27 0 -15 7 -53 16 -85 18 -63 14 -136 -36 -568
-27 -236 -42 -482 -34 -548 7 -59 27 -117 49 -142 10 -12 7 -26 -19 -80 -29
-60 -37 -69 -109 -112 -43 -26 -102 -54 -130 -64 -77 -24 -86 -36 -62 -80 33
-62 53 -69 195 -70 69 0 146 -4 172 -8 l47 -8 26 85 c15 47 25 93 23 102 -7
36 -24 16 -50 -60 -22 -64 -31 -79 -45 -76 -10 2 -79 4 -154 5 -119 1 -140 3
-158 20 -30 27 -26 43 12 50 18 3 67 26 110 50 43 25 85 42 95 39 15 -3 24 9
46 66 15 39 32 71 38 71 5 0 6 9 3 20 -3 11 -4 20 -2 20 8 0 67 -22 67 -25 0
-2 -7 -39 -15 -82 -8 -43 -15 -79 -15 -80 0 -2 7 -3 15 -3 21 0 34 31 41 98
l7 59 47 20 c27 12 58 35 75 57 34 45 107 228 110 276 1 19 6 80 10 135 5 55
8 103 7 107 -4 19 20 226 30 251 18 47 29 31 22 -33 -5 -42 -3 -64 6 -75 14
-17 9 -94 -17 -275 -24 -171 -26 -200 -25 -315 2 -121 13 -168 44 -189 18 -13
19 -19 11 -43 -6 -15 -18 -54 -28 -85 -14 -44 -23 -58 -37 -58 -27 0 -89 -28
-115 -52 -24 -22 -39 -85 -28 -118 9 -28 61 -50 94 -40 54 16 253 110 295 139
50 35 55 51 51 201 -2 82 0 98 17 116 10 12 34 64 53 117 l34 95 -5 293 c-3
193 -8 297 -16 306 -7 9 -9 42 -5 92 3 44 1 83 -4 88 -4 4 -4 37 1 73 6 42 6
68 -1 76 -11 13 -6 72 13 156 l10 48 28 -29 c16 -15 60 -46 98 -69 39 -23 130
-80 204 -127 80 -51 148 -88 171 -91 25 -5 37 -12 37 -23 0 -25 73 -94 86 -81
7 7 28 3 67 -15 l57 -25 0 -53 c0 -41 5 -58 19 -71 24 -22 56 -14 72 17 7 12
18 26 25 30 8 4 14 21 14 37 0 30 13 40 25 20 8 -13 42 -13 50 0 4 6 0 21 -8
33 -13 20 -12 24 17 50 28 27 29 30 13 42 -16 12 -15 14 18 33 45 27 45 49 -1
68 -30 13 -49 13 -113 4 -42 -6 -87 -16 -100 -21 -17 -7 -39 -6 -73 2 -42 11
-48 16 -48 39 0 71 -147 203 -437 393 -32 21 -92 63 -133 93 -79 58 -177 112
-245 134 -37 13 -38 14 -16 20 41 10 37 30 -6 31 l-38 0 48 15 c33 10 63 30
93 62 90 93 221 334 280 514 16 49 36 90 44 93 23 7 40 40 50 97 12 60 2 78
-41 78 -22 0 -29 5 -29 19 0 11 -12 28 -27 40 -23 16 -24 19 -7 15 12 -3 26 1
33 10 8 10 9 16 3 16 -6 0 -14 -4 -17 -10 -14 -22 -23 -8 -19 28 l5 37 -13
-35 c-7 -20 -21 -36 -32 -38 -11 -3 -16 0 -11 7 3 6 12 8 18 4 7 -3 -8 13 -31
36 -24 23 -52 61 -62 83 -13 29 -19 35 -22 23 -3 -18 -4 -18 -21 -1 -13 13
-25 16 -45 11 l-27 -8 26 -11 c16 -7 24 -17 21 -26 -3 -10 1 -9 10 3 13 17 15
18 28 2 22 -26 -3 -42 -34 -21 -15 9 -26 21 -26 26 0 5 -9 11 -19 15 -16 5
-18 10 -8 34 5 15 7 35 4 45 -9 22 -59 21 -90 -4z m51 -38 c4 -38 -13 -43 -22
-7 -4 14 -12 25 -19 25 -8 0 -7 4 3 10 23 15 35 6 38 -28z m-88 16 c0 -7 -9
-24 -20 -38 -11 -14 -20 -30 -20 -37 0 -7 -9 -17 -19 -23 -23 -12 -42 -13 -23
-2 7 5 14 17 16 28 2 10 5 24 6 29 5 22 -1 25 -25 9 -14 -9 -25 -14 -25 -11 0
9 83 57 98 57 6 0 12 -6 12 -12z m-178 -31 c-3 -26 -10 -36 -33 -44 -16 -6
-29 -8 -29 -4 0 6 59 81 64 81 1 0 0 -15 -2 -33z m211 -49 c-6 -7 -13 -24 -15
-38 -3 -26 -33 -39 -50 -22 -7 7 0 24 23 51 21 27 36 38 42 32 7 -7 6 -15 0
-23z m83 -4 c-5 -14 -4 -15 8 -5 16 13 29 2 18 -16 -4 -6 -15 -7 -29 -2 -23 8
-29 20 -16 32 13 13 25 7 19 -9z m-272 -26 c-10 -12 -13 -18 -6 -14 6 4 12 3
12 -2 0 -16 -38 -21 -44 -7 -5 14 8 28 34 38 24 9 24 8 4 -15z m-59 -38 c10
-11 24 -20 32 -20 18 0 17 -44 -2 -60 -18 -15 -20 1 -2 19 9 11 9 12 0 7 -7
-4 -22 -2 -34 5 -16 8 -28 8 -45 0 -20 -9 -24 -8 -24 7 0 23 28 62 44 62 7 0
21 -9 31 -20z m-115 -20 c-11 -37 -19 -50 -31 -50 -17 0 -9 33 13 57 27 29 28
29 18 -7z m428 -8 c-7 -10 -13 -19 -14 -20 -1 -2 -8 6 -14 18 -7 13 -8 20 -2
16 6 -3 13 -2 17 4 4 6 11 8 16 4 6 -3 5 -12 -3 -22z m-142 6 c5 -8 2 -9 -9
-5 -10 3 -17 2 -17 -4 0 -5 -8 -12 -17 -16 -10 -3 -26 -13 -37 -22 -18 -15
-18 -15 -11 9 4 14 12 31 17 38 13 15 64 16 74 0z m5 -38 c-13 -11 -33 -20
-45 -20 -17 1 -14 4 14 20 45 25 61 25 31 0z m119 0 c8 -15 8 -20 -2 -20 -22
0 -41 17 -34 29 11 17 24 13 36 -9z m154 0 c7 -7 2 -10 -12 -10 -12 0 -22 4
-22 9 0 5 -17 8 -37 6 -25 -2 -32 0 -22 6 16 10 79 3 93 -11z m-197 -18 c12
-7 28 -12 35 -12 7 0 30 -9 51 -20 20 -11 46 -20 56 -20 27 0 68 -41 63 -63
-2 -12 5 -19 27 -23 16 -4 39 -15 50 -25 16 -15 25 -17 40 -9 13 7 22 7 26 0
3 -5 -3 -10 -15 -10 -12 0 -18 -5 -15 -10 4 -6 10 -8 15 -5 11 7 -4 -48 -42
-152 -27 -76 -32 -82 -53 -77 -26 6 -44 -13 -21 -22 22 -8 20 -36 -4 -66 -10
-14 -17 -28 -13 -31 10 -11 -135 -233 -176 -270 -72 -65 -208 -87 -282 -45
-42 23 -44 27 -65 108 -8 30 -38 126 -66 213 l-50 158 22 24 c21 22 13 45 -10
30 -15 -9 -12 94 4 149 19 62 42 87 72 80 27 -7 83 10 116 35 13 9 50 26 83
36 33 11 69 25 79 32 22 14 41 13 73 -5z m155 -2 c17 0 18 -3 8 -15 -21 -25
-80 -13 -80 16 0 10 44 16 48 7 2 -5 13 -8 24 -8z m-422 1 c0 -5 2 -16 5 -23
4 -9 -4 -19 -20 -26 -36 -16 -65 -15 -65 3 0 11 12 15 43 16 24 1 32 4 19 6
-19 4 -21 7 -11 19 13 16 29 19 29 5z m598 -15 c4 -17 -13 -44 -22 -35 -2 2
-8 17 -12 33 -6 24 -4 27 12 24 10 -2 20 -12 22 -22z m-748 -38 c-32 -26 -36
-15 -8 22 19 26 24 29 27 14 2 -10 -7 -26 -19 -36z m660 27 c-7 -8 -20 -15
-29 -16 -11 0 -12 -2 -3 -6 7 -3 19 1 28 8 17 14 31 4 36 -26 1 -11 8 -23 13
-27 6 -5 5 -8 -3 -8 -8 0 -10 -5 -6 -12 4 -7 4 -10 -1 -6 -4 4 -14 3 -20 -2
-14 -12 -48 -2 -39 11 3 5 13 9 24 9 10 0 20 7 24 15 6 17 -2 19 -23 6 -20
-13 -50 4 -47 25 1 9 13 22 27 30 31 17 34 17 19 -1z m150 -87 c0 -30 -1 -31
-14 -12 -14 18 -15 18 -24 -5 l-9 -25 -7 28 c-8 34 -1 46 30 46 20 0 24 -5 24
-32z m17 -61 c-20 -46 -43 -61 -33 -21 7 29 35 68 43 60 2 -2 -2 -20 -10 -39z
m-517 -767 c0 -25 74 -80 107 -80 33 0 103 -37 203 -109 47 -33 148 -103 225
-155 225 -152 325 -247 325 -307 0 -38 -30 -53 -85 -44 -31 4 -86 33 -182 93
-76 49 -173 110 -216 136 -86 53 -112 83 -102 118 4 13 9 30 11 39 3 10 -3 18
-15 22 -21 5 -31 -9 -31 -46 0 -12 -7 -31 -15 -41 -22 -29 -43 -103 -50 -179
l-7 -69 -36 6 c-35 6 -57 7 -93 5 -8 0 -60 5 -115 12 -83 10 -231 12 -369 5
-29 -1 -30 0 -30 49 -2 145 -5 175 -20 175 -9 0 -15 9 -15 23 0 32 -18 47 -59
47 -39 0 -50 -3 -221 -59 -164 -53 -238 -71 -294 -71 -44 0 -46 1 -46 29 0 24
10 36 53 67 28 20 71 57 95 81 52 53 88 71 217 113 55 18 127 43 160 55 33 12
89 25 125 29 36 4 94 14 129 22 36 8 88 16 115 19 28 2 69 10 91 19 22 8 64
15 93 15 46 1 52 -1 52 -19z m-1170 -486 c-14 -13 -49 -28 -76 -35 -65 -16
-81 -25 -89 -49 -5 -16 -10 -18 -25 -10 -16 8 -22 6 -35 -14 -28 -43 -42 -39
-40 11 2 37 -1 46 -17 51 -18 4 -18 5 -1 24 17 19 17 20 -2 34 -17 13 -16 14
22 14 22 0 64 -4 92 -10 48 -9 57 -7 109 19 l56 28 17 -20 c15 -20 15 -22 -11
-43z m1075 -155 c61 -6 147 -12 192 -12 l82 -1 4 -136 c3 -74 10 -234 16 -355
18 -328 7 -436 -58 -562 -17 -34 -30 -45 -74 -61 -30 -11 -70 -24 -90 -27 -33
-6 -38 -4 -55 24 -38 62 -37 184 2 473 37 262 12 453 -54 418 -42 -22 -61
-131 -75 -420 -4 -69 -13 -141 -20 -160 -8 -19 -28 -74 -46 -122 -27 -74 -38
-91 -70 -112 -51 -34 -77 -39 -124 -23 -31 11 -45 24 -62 58 -20 39 -23 60
-23 184 -1 125 12 348 25 415 3 14 14 112 24 217 11 106 22 196 25 201 8 13
262 14 381 1z m1305 -56 c0 -5 -26 -21 -58 -38 -62 -32 -76 -60 -29 -60 15 1
27 -2 27 -5 -1 -11 -26 -35 -37 -36 -29 -2 -33 -5 -33 -18 0 -7 -7 -27 -15
-42 -8 -16 -15 -37 -15 -46 0 -9 -4 -20 -10 -23 -6 -4 -10 15 -10 49 0 44 -4
59 -22 76 -12 11 -25 20 -30 20 -4 0 -35 13 -69 30 -34 16 -64 29 -68 28 -12
-2 -41 14 -41 23 0 5 13 9 29 9 16 0 37 7 45 16 15 14 21 14 67 -1 28 -10 60
-14 72 -10 32 10 148 33 175 34 12 0 22 -2 22 -6z m-1106 -1205 c-2 -110 -3
-113 -31 -135 -23 -19 -117 -64 -269 -129 -46 -19 -69 0 -60 49 6 30 15 41 46
57 22 11 50 20 63 20 13 0 31 8 39 18 17 19 42 87 53 143 6 34 10 37 58 48 29
7 63 18 77 26 14 8 25 14 26 15 0 0 0 -50 -2 -112z"/>
<path d="M1530 3551 c-8 -5 -31 -11 -51 -15 -52 -9 -129 -70 -129 -101 0 -34
18 -31 71 9 51 38 117 66 159 66 34 0 47 15 30 35 -14 16 -56 19 -80 6z"/>
<path d="M1803 3513 c-33 -4 -44 -25 -22 -39 6 -4 52 -17 101 -30 54 -13 99
-31 114 -44 13 -13 30 -20 38 -17 21 8 20 18 -6 57 -16 24 -41 41 -83 57 -58
22 -74 24 -142 16z"/>
<path d="M1535 3462 c-80 -35 -145 -72 -155 -91 -13 -25 -13 -27 6 -45 25 -26
89 -20 155 15 68 37 84 53 92 96 9 47 -25 56 -98 25z m59 -34 c-3 -7 -16 -21
-30 -31 -22 -16 -26 -17 -40 -2 -14 14 -13 17 18 30 41 18 59 19 52 3z m-124
-58 c0 -16 -7 -20 -32 -20 l-33 0 30 19 c17 11 31 20 33 20 1 1 2 -8 2 -19z"/>
<path d="M1658 3413 c-12 -27 -38 -76 -59 -110 -34 -57 -36 -64 -22 -78 10
-10 29 -15 51 -13 38 3 58 28 23 28 -11 0 -22 4 -25 8 -2 4 13 45 35 90 21 45
39 91 39 102 0 35 -20 22 -42 -27z"/>
<path d="M1750 3391 c-30 -5 -35 -10 -38 -37 -5 -56 66 -93 180 -94 64 0 68 1
74 25 8 31 -6 49 -65 87 -46 28 -76 32 -151 19z m68 -42 c-10 -5 -18 -17 -18
-24 0 -18 -10 -18 -32 -1 -30 23 -21 36 25 36 33 -1 38 -3 25 -11z m89 -23
c33 -28 30 -35 -13 -29 -25 4 -31 10 -31 29 0 30 9 30 44 0z"/>
<path d="M1583 3078 c-21 -27 -21 -47 -2 -72 23 -29 60 -34 83 -10 19 18 21
65 4 82 -16 16 -73 15 -85 0z m61 -34 c7 -18 -21 -31 -36 -16 -15 15 -2 43 16
36 8 -3 17 -12 20 -20z"/>
<path d="M1454 2518 c-39 -41 -54 -86 -57 -173 -2 -50 -8 -71 -20 -80 -9 -7
-17 -17 -17 -24 0 -16 25 -14 40 3 8 11 24 13 61 9 33 -4 49 -2 49 6 0 6 0 14
0 19 1 4 -14 9 -32 12 -40 6 -40 11 7 117 20 45 37 95 38 110 3 42 -31 42 -69
1z m15 -80 c-36 -87 -54 -93 -24 -8 16 44 34 74 42 66 2 -2 -6 -28 -18 -58z"/>
<path d="M1613 2530 c-55 -22 -59 -105 -8 -169 28 -35 33 -47 24 -62 -12 -23
-17 -24 -41 -3 -16 16 -18 15 -24 0 -10 -25 28 -60 55 -51 58 18 68 79 21 135
-32 36 -40 86 -18 108 18 18 36 14 40 -8 4 -29 22 -30 26 -2 4 24 -23 62 -42
61 -6 0 -21 -4 -33 -9z"/>
<path d="M2036 3809 c10 -12 33 -31 49 -42 l30 -22 -35 42 c-19 24 -41 43 -49
43 -10 0 -9 -5 5 -21z"/>
</g>
</svg>
